<svg xmlns="http://www.w3.org/2000/svg" viewBox="0 0 64 64" fill="none">
  <rect width="64" height="64" rx="16" fill="url(#g)"/>
  <path d="M18 22c0-2.2 1.8-4 4-4h20c2.2 0 4 1.8 4 4v4c0 2.2-1.8 4-4 4H22c-2.2 0-4-1.8-4-4v-4Zm0 16c0-2.2 1.8-4 4-4h12c2.2 0 4 1.8 4 4v4c0 2.2-1.8 4-4 4H22c-2.2 0-4-1.8-4-4v-4Z" fill="#fff"/>
  <defs>
    <linearGradient id="g" x1="0" y1="0" x2="64" y2="64" gradientUnits="userSpaceOnUse">
      <stop stop-color="#3b82f6"/>
      <stop offset="1" stop-color="#1e40af"/>
    </linearGradient>
  </defs>
</svg>
